<?xml version="1.0" ?><svg height="60" id="svg9844" version="1.1" viewBox="0 0 60.000001 60.000001" width="60" xmlns="http://www.w3.org/2000/svg" xmlns:cc="http://creativecommons.org/ns#" xmlns:dc="http://purl.org/dc/elements/1.1/" xmlns:inkscape="http://www.inkscape.org/namespaces/inkscape" xmlns:rdf="http://www.w3.org/1999/02/22-rdf-syntax-ns#" xmlns:sodipodi="http://sodipodi.sourceforge.net/DTD/sodipodi-0.dtd" xmlns:svg="http://www.w3.org/2000/svg"><defs id="defs9846"/><g id="layer1" transform="translate(0,-992.36216)"><g id="g6704" style="fill:#dd4b39;fill-opacity:1" transform="matrix(0.3,0,0,0.3,14.7927,1007.362)"><path d="m 53.267,56.855 -4.533,-3.522 c -1.38,-1.144 -3.27,-2.656 -3.27,-5.422 0,-2.778 1.889,-4.544 3.527,-6.18 5.28,-4.157 10.557,-8.581 10.557,-17.903 0,-9.586 -6.031,-14.629 -8.923,-17.022 l 7.795,0 8.181,-5.14 -24.785,0 c -6.801,0 -16.603,1.608 -23.779,7.533 -5.408,4.666 -8.046,11.099 -8.046,16.892 0,9.831 7.548,19.798 20.88,19.798 1.259,0 2.636,-0.124 4.022,-0.252 -0.623,1.515 -1.252,2.777 -1.252,4.917 0,3.905 2.006,6.299 3.774,8.567 -5.663,0.39 -16.237,1.018 -24.033,5.809 -7.424,4.415 -9.684,10.84 -9.684,15.376 0,9.335 8.8,18.029 27.045,18.029 21.636,0 33.089,-11.971 33.089,-23.823 C 63.834,65.804 58.803,61.519 53.267,56.855 Z M 36.788,42.357 c -10.824,0 -15.727,-13.992 -15.727,-22.434 0,-3.288 0.623,-6.682 2.763,-9.333 2.019,-2.524 5.533,-4.162 8.814,-4.162 10.434,0 15.846,14.118 15.846,23.197 0,2.271 -0.251,6.296 -3.144,9.207 -2.023,2.021 -5.409,3.525 -8.552,3.525 z m 0.124,50.696 c -13.46,0 -22.139,-6.438 -22.139,-15.392 0,-8.949 8.048,-11.977 10.816,-12.979 5.281,-1.778 12.076,-2.025 13.21,-2.025 1.258,0 1.887,0 2.889,0.126 9.568,6.81 13.721,10.203 13.721,16.65 10e-4,7.806 -6.417,13.62 -18.497,13.62 z" id="path6706" style="fill:#dd4b39;fill-opacity:1"/><polygon id="polygon6708" points="85.036,48.459 97.684,48.459 97.684,42.165 85.036,42.165 85.036,29.56 78.811,29.56 78.811,42.165 66.226,42.165 66.226,48.459 78.811,48.459 78.811,61.142 85.036,61.142 " style="fill:#dd4b39;fill-opacity:1"/></g><circle cx="30" cy="1022.3621" id="path9266-4-1-6-1-5" r="30" style="opacity:0.19100001;fill:#cccccc;fill-opacity:1;stroke:none;stroke-width:4.51399994;stroke-miterlimit:4;stroke-dasharray:none;stroke-opacity:1"/></g></svg>