<?xml version="1.0" ?><svg height="60" id="svg9844" version="1.1" viewBox="0 0 60.000001 60.000001" width="60" xmlns="http://www.w3.org/2000/svg" xmlns:cc="http://creativecommons.org/ns#" xmlns:dc="http://purl.org/dc/elements/1.1/" xmlns:inkscape="http://www.inkscape.org/namespaces/inkscape" xmlns:rdf="http://www.w3.org/1999/02/22-rdf-syntax-ns#" xmlns:sodipodi="http://sodipodi.sourceforge.net/DTD/sodipodi-0.dtd" xmlns:svg="http://www.w3.org/2000/svg"><defs id="defs9846"/><g id="layer1" transform="translate(0,-992.36216)"><path d="m 19.141201,1007.7531 21.717898,0 c 2.0625,0 3.75,1.527 3.75,3.75 l 0,21.7182 c 0,2.2233 -1.6875,3.75 -3.75,3.75 l -21.717898,0 c -2.0631,0 -3.7503,-1.527 -3.7503,-3.75 l 0,-21.7182 c 0,-2.223 1.687199,-3.75 3.7503,-3.75 l 0,0 z m 17.534099,3.2463 c -0.7236,0 -1.3152,0.5916 -1.3152,1.3155 l 0,3.1485 c 0,0.7236 0.5916,1.3155 1.3152,1.3155 l 3.3024,0 c 0.7233,0 1.3152,-0.5919 1.3152,-1.3155 l 0,-3.1485 c 0,-0.7239 -0.5919,-1.3155 -1.3152,-1.3155 l -3.3024,0 0,0 z m 4.6317,9.1098 -2.5719,0 c 0.2433,0.7944 0.375,1.6359 0.375,2.5068 0,4.86 -4.0665,8.7996 -9.0822,8.7996 -5.015399,0 -9.081599,-3.9396 -9.081599,-8.7996 0,-0.8712 0.1314,-1.7124 0.375,-2.5068 l -2.6835,0 0,12.3423 c 0,0.6387 0.5226,1.1616 1.1616,1.1616 l 20.346599,0 c 0.6387,0 1.1616,-0.5226 1.1616,-1.1616 l 0,-12.3423 0,0 z m -11.2794,-3.4962 c -3.240599,0 -5.867999,2.5455 -5.867999,5.6859 0,3.1404 2.6274,5.6859 5.867999,5.6859 3.2409,0 5.8686,-2.5455 5.8686,-5.6859 0,-3.1404 -2.6274,-5.6859 -5.8686,-5.6859 z" id="path6949" style="clip-rule:evenodd;fill:#517fa4;fill-opacity:1;fill-rule:evenodd"/><circle cx="30" cy="1022.3622" id="path9266-4-1-6-1-5-6-8-0-6" r="30" style="opacity:0.19100001;fill:#cccccc;fill-opacity:1;stroke:none;stroke-width:4.51399994;stroke-miterlimit:4;stroke-dasharray:none;stroke-opacity:1"/></g></svg>