<?xml version="1.0" ?><svg height="60" id="svg9844" version="1.1" viewBox="0 0 60.000001 60.000001" width="60" xmlns="http://www.w3.org/2000/svg" xmlns:cc="http://creativecommons.org/ns#" xmlns:dc="http://purl.org/dc/elements/1.1/" xmlns:inkscape="http://www.inkscape.org/namespaces/inkscape" xmlns:rdf="http://www.w3.org/1999/02/22-rdf-syntax-ns#" xmlns:sodipodi="http://sodipodi.sourceforge.net/DTD/sodipodi-0.dtd" xmlns:svg="http://www.w3.org/2000/svg"><defs id="defs9846"/><g id="layer1" transform="translate(0,-992.36216)"><g id="g7191" style="fill:#007bb6;fill-opacity:1" transform="matrix(0.3,0,0,0.3,15,1007.3622)"><path d="M 14.655,3.55 C 8.474,3.55 3.471,8.562 3.47,14.729 c 0,6.173 5.003,11.184 11.186,11.184 6.166,0 11.176,-5.011 11.176,-11.184 C 25.832,8.561 20.821,3.55 14.655,3.55 Z" id="path7193" style="fill:#007bb6;fill-opacity:1"/><rect height="62.054001" id="rect7195" style="fill:#007bb6;fill-opacity:1" width="19.287001" x="5.0079999" y="34.396"/><path d="m 73.395,32.853 c -9.382,0 -15.673,5.144 -18.248,10.022 l -0.258,0 0,-8.479 -18.498,0 -10e-4,0 0,62.053 19.27,0 0,-30.698 c 0,-8.093 1.541,-15.932 11.575,-15.932 9.89,0 10.022,9.256 10.022,16.452 l 0,30.177 19.273,0 0,-34.036 c 0,-16.707 -3.605,-29.559 -23.135,-29.559 z" id="path7197" style="fill:#007bb6;fill-opacity:1"/></g><circle cx="30" cy="1022.3622" id="path9266-4-1-2" r="30" style="opacity:0.19100001;fill:#cccccc;fill-opacity:1;stroke:none;stroke-width:4.51399994;stroke-miterlimit:4;stroke-dasharray:none;stroke-opacity:1"/></g></svg>