<?xml version="1.0" ?><svg height="60" id="svg9844" version="1.1" viewBox="0 0 60.000001 60.000001" width="60" xmlns="http://www.w3.org/2000/svg" xmlns:cc="http://creativecommons.org/ns#" xmlns:dc="http://purl.org/dc/elements/1.1/" xmlns:inkscape="http://www.inkscape.org/namespaces/inkscape" xmlns:rdf="http://www.w3.org/1999/02/22-rdf-syntax-ns#" xmlns:sodipodi="http://sodipodi.sourceforge.net/DTD/sodipodi-0.dtd" xmlns:svg="http://www.w3.org/2000/svg"><defs id="defs9846"/><g id="layer1" transform="translate(0,-992.36216)"><g id="g8172" style="fill:#ff3a00;fill-opacity:1" transform="matrix(0.3,0,0,0.3,15,1007.3622)"><g id="g8174" style="fill:#ff3a00;fill-opacity:1"><path d="m 5.836,50.803 c -0.209,0 -0.38,0.166 -0.407,0.395 l -0.961,8.781 0.961,8.586 c 0.027,0.229 0.198,0.396 0.407,0.396 0.206,0 0.373,-0.163 0.406,-0.394 L 7.336,59.979 6.242,51.198 C 6.209,50.964 6.042,50.803 5.836,50.803 Z" id="path8176" style="fill:#ff3a00;fill-opacity:1"/><path d="m 2.221,54.166 c -0.203,0 -0.365,0.157 -0.392,0.383 l -0.716,5.43 0.716,5.337 c 0.026,0.225 0.188,0.382 0.392,0.382 0.198,0 0.359,-0.156 0.391,-0.38 L 3.459,59.979 2.612,54.546 C 2.58,54.322 2.419,54.166 2.221,54.166 Z" id="path8178" style="fill:#ff3a00;fill-opacity:1"/><path d="m 9.677,49.081 c -0.258,0 -0.464,0.202 -0.49,0.48 0,0 -0.913,10.418 -0.913,10.418 l 0.913,10.037 c 0.026,0.28 0.232,0.48 0.49,0.48 0.253,0 0.459,-0.201 0.489,-0.479 L 11.202,59.978 10.166,49.56 C 10.136,49.283 9.93,49.081 9.677,49.081 Z" id="path8180" style="fill:#ff3a00;fill-opacity:1"/><path d="m 13.55,48.713 c -0.304,0 -0.551,0.242 -0.575,0.564 l -0.862,10.705 0.862,10.355 c 0.024,0.32 0.271,0.563 0.575,0.563 0.299,0 0.545,-0.243 0.573,-0.563 L 15.102,59.982 14.123,49.275 c -0.028,-0.32 -0.274,-0.562 -0.573,-0.562 z" id="path8182" style="fill:#ff3a00;fill-opacity:1"/><polygon id="polygon8184" points="18.109,70.424 18.109,70.422 18.109,70.423 " style="fill:#ff3a00;fill-opacity:1"/><path d="m 18.109,50.048 c -0.024,-0.366 -0.308,-0.644 -0.656,-0.644 -0.353,0 -0.635,0.278 -0.657,0.648 l -0.814,9.929 0.814,10.441 c 0.022,0.368 0.305,0.647 0.657,0.647 0.349,0 0.632,-0.279 0.656,-0.647 l 0.923,-10.441 -0.923,-9.933 z" id="path8186" style="fill:#ff3a00;fill-opacity:1"/><path d="m 21.389,43.098 c -0.396,0 -0.72,0.322 -0.74,0.733 0,0 -0.764,16.155 -0.764,16.155 l 0.764,10.44 c 0.021,0.407 0.345,0.729 0.74,0.729 0.392,0 0.716,-0.322 0.74,-0.732 l 0,0.003 0.864,-10.44 -0.864,-16.156 c -0.025,-0.41 -0.349,-0.732 -0.74,-0.732 z" id="path8188" style="fill:#ff3a00;fill-opacity:1"/><path d="m 25.294,39.377 c -0.443,0 -0.804,0.358 -0.824,0.815 0,0.002 -0.715,19.85 -0.715,19.85 l 0.716,10.375 c 0.02,0.455 0.38,0.813 0.823,0.813 0.44,0 0.804,-0.358 0.823,-0.816 l 0,0.006 0.809,-10.378 -0.809,-19.85 c -0.019,-0.457 -0.383,-0.815 -0.823,-0.815 z" id="path8190" style="fill:#ff3a00;fill-opacity:1"/><path d="m 29.354,37.583 c -0.491,0 -0.89,0.396 -0.907,0.9 0,0.001 -0.665,21.507 -0.665,21.507 l 0.665,10.268 c 0.018,0.5 0.416,0.895 0.907,0.895 0.488,0 0.887,-0.394 0.907,-0.899 l 0,0.006 0.751,-10.27 -0.751,-21.507 c -0.021,-0.504 -0.419,-0.9 -0.907,-0.9 z" id="path8192" style="fill:#ff3a00;fill-opacity:1"/><path d="m 34.373,37.76 c -0.017,-0.552 -0.452,-0.985 -0.989,-0.985 -0.541,0 -0.976,0.434 -0.991,0.985 l -0.616,22.23 0.617,10.205 c 0.015,0.546 0.449,0.978 0.99,0.978 0.537,0 0.973,-0.432 0.989,-0.982 L 35.067,59.992 34.373,37.76 Z" id="path8194" style="fill:#ff3a00;fill-opacity:1"/><polygon id="polygon8196" points="34.373,70.196 34.373,70.191 34.373,70.191 " style="fill:#ff3a00;fill-opacity:1"/><path d="m 37.445,37.262 c -0.59,0 -1.061,0.469 -1.075,1.068 L 35.804,59.994 36.372,70.1 c 0.013,0.593 0.483,1.064 1.073,1.064 0.586,0 1.057,-0.471 1.073,-1.069 l 0,0.007 0.638,-10.109 -0.638,-21.666 c -0.016,-0.598 -0.487,-1.065 -1.073,-1.065 z" id="path8198" style="fill:#ff3a00;fill-opacity:1"/><path d="m 41.538,37.969 c -0.636,0 -1.146,0.507 -1.158,1.153 l -0.517,20.873 0.517,10.044 c 0.012,0.64 0.522,1.145 1.158,1.145 0.635,0 1.144,-0.505 1.156,-1.152 l 0,0.008 0.58,-10.043 -0.58,-20.876 c -0.012,-0.645 -0.521,-1.152 -1.156,-1.152 z" id="path8200" style="fill:#ff3a00;fill-opacity:1"/><path d="M 46.348,34.133 C 46.152,34 45.915,33.922 45.662,33.922 c -0.246,0 -0.475,0.075 -0.668,0.201 -0.339,0.221 -0.566,0.602 -0.572,1.036 l -0.004,0.234 -0.466,24.597 c 0,0.015 0.47,9.985 0.47,9.985 0,0.015 0.002,0.028 0.003,0.042 0.014,0.278 0.119,0.535 0.288,0.738 0.229,0.273 0.57,0.449 0.949,0.449 0.337,0 0.644,-0.139 0.868,-0.363 0.225,-0.223 0.367,-0.532 0.373,-0.873 l 0.052,-0.987 0.471,-8.984 -0.522,-24.84 c -0.008,-0.426 -0.228,-0.802 -0.556,-1.024 z" id="path8202" style="fill:#ff3a00;fill-opacity:1"/><polygon id="polygon8204" points="46.903,69.976 46.903,69.971 46.903,69.968 46.903,69.968 46.903,69.972 46.903,69.975 46.903,69.972 " style="fill:#ff3a00;fill-opacity:1"/><path d="m 50.442,31.778 c -0.197,-0.12 -0.428,-0.19 -0.673,-0.19 -0.316,0 -0.607,0.114 -0.836,0.302 -0.294,0.243 -0.484,0.609 -0.49,1.019 L 48.44,33.045 47.9,60 l 0.276,4.983 0.267,4.849 c 0.011,0.718 0.604,1.311 1.326,1.311 0.719,0 1.313,-0.593 1.323,-1.321 l 0,0.011 0,0.001 0.589,-9.834 0,0 -0.588,-27.093 c -0.007,-0.479 -0.269,-0.898 -0.651,-1.129 z" id="path8206" style="fill:#ff3a00;fill-opacity:1"/><path d="m 86.861,47.176 c -1.647,0 -3.22,0.334 -4.651,0.933 C 81.252,37.272 72.164,28.77 61.077,28.77 c -2.713,0 -5.357,0.534 -7.693,1.437 -0.907,0.352 -1.147,0.712 -1.156,1.414 0,0.001 0,38.168 0,38.168 0.009,0.736 0.579,1.308 1.298,1.38 0.031,0.003 33.336,0 33.336,0 6.642,0 12.025,-5.324 12.025,-11.967 0,-6.642 -5.384,-12.026 -12.026,-12.026 z" id="path8208" style="fill:#ff3a00;fill-opacity:1"/></g></g><circle cx="30" cy="1022.3622" id="path9266-4-1-1" r="30" style="opacity:0.19100001;fill:#cccccc;fill-opacity:1;stroke:none;stroke-width:4.51399994;stroke-miterlimit:4;stroke-dasharray:none;stroke-opacity:1"/></g></svg>