<?xml version="1.0" ?><svg height="60" id="svg9844" version="1.1" viewBox="0 0 60.000001 60.000001" width="60" xmlns="http://www.w3.org/2000/svg" xmlns:cc="http://creativecommons.org/ns#" xmlns:dc="http://purl.org/dc/elements/1.1/" xmlns:inkscape="http://www.inkscape.org/namespaces/inkscape" xmlns:rdf="http://www.w3.org/1999/02/22-rdf-syntax-ns#" xmlns:sodipodi="http://sodipodi.sourceforge.net/DTD/sodipodi-0.dtd" xmlns:svg="http://www.w3.org/2000/svg"><defs id="defs9846"/><g id="layer1" transform="translate(0,-992.36216)"><path d="m 44.610902,1013.2741 c -0.0417,-0.05 -0.1113,-0.066 -0.1704,-0.039 -0.8757,0.3885 -1.797,0.6678 -2.7459,0.8328 1.0074,-0.7578 1.758,-1.8072 2.1426,-3.0105 0.0186,-0.058 0,-0.1206 -0.0477,-0.1581 -0.0474,-0.038 -0.1131,-0.042 -0.165,-0.011 -1.1346,0.6729 -2.3634,1.1472 -3.6537,1.4103 -1.1439,-1.1868 -2.7405,-1.8657 -4.3932,-1.8657 -3.3612,0 -6.0954,2.7342 -6.0954,6.0951 0,0.4065 0.0393,0.8091 0.1173,1.2 -4.655399,-0.2874 -9.008399,-2.5224 -11.968199,-6.1527 -0.0303,-0.037 -0.0762,-0.058 -0.1242,-0.053 -0.0477,0 -0.0903,0.031 -0.1143,0.072 -0.54,0.9264 -0.8253,1.9863 -0.8253,3.0645 0,1.8687 0.849,3.6159 2.2947,4.7688 -0.7443,-0.089 -1.4712,-0.3237 -2.1267,-0.6876 -0.0441,-0.025 -0.099,-0.025 -0.1431,0 -0.0441,0.025 -0.072,0.072 -0.0732,0.123 l 0,0.078 c 0,2.6838 1.7685,5.0403 4.2846,5.8226 -0.6627,0.1072 -1.3503,0.1 -2.0262,-0.029 -0.0498,-0.01 -0.102,0.01 -0.1362,0.046 -0.0339,0.038 -0.0453,0.092 -0.0297,0.1407 0.7545,2.355 2.8509,4.0065 5.2911,4.2123 -2.0355,1.491 -4.4415,2.2767 -6.9837,2.2767 -0.4683,0 -0.9399,-0.028 -1.4019,-0.082 -0.066,-0.01 -0.1314,0.032 -0.1542,0.095 -0.0228,0.064 0,0.1351 0.0585,0.1717 2.751,1.764 5.9319,2.6964 9.1992,2.6964 10.687499,0 17.073899,-8.6814 17.073899,-17.0742 0,-0.2337 -0.0045,-0.4662 -0.0138,-0.6981 1.1529,-0.8433 2.1423,-1.8756 2.9406,-3.0705 0.0357,-0.054 0.0318,-0.1248 -0.0099,-0.1746 z" id="path8645" style="fill:#00aced;fill-opacity:1"/><circle cx="30" cy="1022.3622" id="path9266-3" r="30" style="opacity:0.19100001;fill:#cccccc;fill-opacity:1;stroke:none;stroke-width:4.51399994;stroke-miterlimit:4;stroke-dasharray:none;stroke-opacity:1"/></g></svg>