<?xml version="1.0" ?><svg height="60" id="svg9844" version="1.1" viewBox="0 0 60.000001 60.000001" width="60" xmlns="http://www.w3.org/2000/svg" xmlns:cc="http://creativecommons.org/ns#" xmlns:dc="http://purl.org/dc/elements/1.1/" xmlns:inkscape="http://www.inkscape.org/namespaces/inkscape" xmlns:rdf="http://www.w3.org/1999/02/22-rdf-syntax-ns#" xmlns:sodipodi="http://sodipodi.sourceforge.net/DTD/sodipodi-0.dtd" xmlns:svg="http://www.w3.org/2000/svg"><defs id="defs9846"/><g id="layer1" transform="translate(0,-992.36216)"><g id="g8789" style="fill:#00b488;fill-opacity:1" transform="matrix(0.3,0,0,0.3,15,1007.3623)"><path d="m 93.235,49.46 c -1.716,0.454 -3.496,0.768 -5.338,0.94 -8.832,0.826 -16.284,-1.746 -21.197,-9.579 -2.939,-4.687 -3.746,-9.954 -3.415,-15.414 0.133,-2.185 0.533,-4.314 1.694,-6.222 1.082,-1.776 2.565,-2.939 4.736,-3.016 3.1,-0.109 5.252,1.798 6.107,5.533 1.1,4.792 0.351,9.489 -0.97,14.11 -0.135,0.472 -0.385,1.467 -0.385,1.467 0,0 0.635,0.721 1.094,1.182 3.194,3.214 7.14,3.947 11.434,3.603 0.671,-0.054 1.609,-0.142 1.609,-0.142 0,0 0.432,-1.073 0.603,-1.537 C 91.516,34.067 92.47,27.593 91.78,20.876 90.796,11.291 85.716,2.945 73.487,1.706 62.549,0.598 53.474,5.638 49.666,16.083 47.481,22.079 47.37,28.227 48.481,34.419 50.34,44.77 55.21,53.181 64.529,58.586 c 0.931,0.539 0.943,0.965 0.49,1.826 -3.788,7.209 -8.313,13.906 -13.788,19.946 -2.36,2.603 -2.341,2.577 -4.558,-0.228 C 35.513,66.002 29.367,49.698 25.887,32.237 24.935,27.46 24.154,22.671 23.557,17.833 L 23.417,16.16 6.765,16.15 6.9,17.099 c 2.105,15.033 5.289,29.796 10.917,43.952 4.137,10.402 9.353,20.169 16.909,28.544 2.459,2.725 5.149,5.184 8.251,7.181 3.63,2.338 7.182,2.185 10.672,-0.254 0.995,-0.698 1.958,-1.457 2.86,-2.273 9.608,-8.698 17.368,-18.82 23.243,-30.371 0.457,-0.902 0.93,-1.315 2.013,-1.32 2.437,-0.01 4.863,-0.291 7.271,-0.697 1.418,-0.239 2.817,-0.528 4.199,-0.876 l 0,-11.525 z" id="path8791" style="clip-rule:evenodd;fill-rule:evenodd;fill:#00b488;fill-opacity:1"/></g><circle cx="30" cy="1022.3622" id="path9266-4-1-6-1-5-6-8-0" r="30" style="opacity:0.19100001;fill:#cccccc;fill-opacity:1;stroke:none;stroke-width:4.51399994;stroke-miterlimit:4;stroke-dasharray:none;stroke-opacity:1"/></g></svg>