<?xml version="1.0" ?><svg height="60" id="svg9844" version="1.1" viewBox="0 0 60.000001 60.000001" width="60" xmlns="http://www.w3.org/2000/svg" xmlns:cc="http://creativecommons.org/ns#" xmlns:dc="http://purl.org/dc/elements/1.1/" xmlns:inkscape="http://www.inkscape.org/namespaces/inkscape" xmlns:rdf="http://www.w3.org/1999/02/22-rdf-syntax-ns#" xmlns:sodipodi="http://sodipodi.sourceforge.net/DTD/sodipodi-0.dtd" xmlns:svg="http://www.w3.org/2000/svg"><defs id="defs9846"/><g id="layer1" transform="translate(0,-992.36216)"><g id="g9216" style="fill:#bb0000;fill-opacity:1" transform="matrix(0.3,0,0,0.3,15.0003,1007.3621)"><path d="m 86.948,50.569 c -0.937,-4.071 -4.267,-7.074 -8.275,-7.521 -9.49,-1.06 -19.098,-1.065 -28.661,-1.06 -9.566,-0.005 -19.173,0 -28.665,1.06 -4.006,0.448 -7.334,3.451 -8.27,7.521 -1.334,5.797 -1.35,12.125 -1.35,18.094 0,5.969 0,12.296 1.334,18.093 0.936,4.07 4.264,7.073 8.272,7.521 9.49,1.061 19.097,1.066 28.662,1.061 9.566,0.005 19.171,0 28.663,-1.061 4.006,-0.448 7.336,-3.451 8.273,-7.521 1.333,-5.797 1.34,-12.124 1.34,-18.093 0,-5.969 0.01,-12.297 -1.323,-18.094 z m -53.387,4.493 -5.54,0 0,29.439 -5.146,0 0,-29.439 -5.439,0 0,-4.822 16.125,0 0,4.822 z m 13.977,29.439 -4.629,0 0,-2.785 c -1.839,2.108 -3.585,3.136 -5.286,3.136 -1.491,0 -2.517,-0.605 -2.98,-1.898 -0.252,-0.773 -0.408,-1.994 -0.408,-3.796 l 0,-20.185 4.625,0 0,18.795 c 0,1.084 0,1.647 0.042,1.798 0.111,0.718 0.462,1.082 1.082,1.082 0.928,0 1.898,-0.715 2.924,-2.165 l 0,-19.51 4.629,0 0,25.528 z m 17.573,-7.662 c 0,2.361 -0.159,4.062 -0.468,5.144 -0.618,1.899 -1.855,2.869 -3.695,2.869 -1.646,0 -3.235,-0.914 -4.781,-2.825 l 0,2.474 -4.625,0 0,-34.261 4.625,0 0,11.19 c 1.493,-1.839 3.08,-2.769 4.781,-2.769 1.84,0 3.078,0.969 3.695,2.88 0.311,1.027 0.468,2.715 0.468,5.132 l 0,10.166 z m 17.457,-4.259 -9.251,0 0,4.526 c 0,2.363 0.774,3.542 2.363,3.542 1.139,0 1.802,-0.619 2.067,-1.855 0.042,-0.251 0.103,-1.279 0.103,-3.134 l 4.719,0 0,0.675 c 0,1.491 -0.057,2.518 -0.099,2.981 -0.155,1.024 -0.519,1.952 -1.08,2.771 -1.281,1.854 -3.179,2.768 -5.595,2.768 -2.419,0 -4.262,-0.871 -5.598,-2.615 -0.982,-1.278 -1.486,-3.29 -1.486,-6.003 l 0,-8.941 c 0,-2.728 0.447,-4.724 1.43,-6.015 1.336,-1.747 3.177,-2.617 5.54,-2.617 2.321,0 4.162,0.87 5.457,2.617 0.969,1.291 1.432,3.287 1.432,6.015 l 0,5.285 z" id="path9218" style="fill:#bb0000;fill-opacity:1"/><path d="m 75.638,62.825 c -1.546,0 -2.321,1.181 -2.321,3.541 l 0,2.363 4.625,0 0,-2.363 c 0,-2.36 -0.773,-3.541 -2.304,-3.541 z" id="path9220" style="fill:#bb0000;fill-opacity:1"/><path d="m 58.473,62.825 c -0.761,0 -1.534,0.361 -2.307,1.125 l 0,15.559 c 0.773,0.774 1.545,1.139 2.307,1.139 1.334,0 2.012,-1.139 2.012,-3.445 l 0,-10.894 c 0,-2.303 -0.678,-3.484 -2.012,-3.484 z" id="path9222" style="fill:#bb0000;fill-opacity:1"/><path d="m 61.057,39.635 c 1.705,0 3.479,-1.036 5.34,-3.168 l 0,2.814 4.675,0 0,-25.799 -4.675,0 0,19.718 c -1.036,1.464 -2.017,2.188 -2.953,2.188 -0.626,0 -0.994,-0.37 -1.096,-1.095 -0.056,-0.153 -0.056,-0.722 -0.056,-1.817 l 0,-18.994 -4.661,0 0,20.4 c 0,1.822 0.157,3.055 0.415,3.836 0.468,1.307 1.505,1.917 3.011,1.917 z" id="path9224" style="fill:#bb0000;fill-opacity:1"/><path d="m 28.511,25.26 0,14.021 5.184,0 0,-14.021 6.237,-20.598 -5.242,0 -3.537,13.595 -3.68,-13.595 -5.455,0 c 1.093,3.209 2.23,6.434 3.323,9.646 1.663,4.828 2.701,8.468 3.17,10.952 z" id="path9226" style="fill:#bb0000;fill-opacity:1"/><path d="m 46.88,39.635 c 2.342,0 4.162,-0.881 5.453,-2.641 0.981,-1.291 1.451,-3.325 1.451,-6.067 l 0,-9.034 c 0,-2.758 -0.469,-4.774 -1.451,-6.077 -1.292,-1.765 -3.111,-2.646 -5.453,-2.646 -2.33,0 -4.149,0.881 -5.443,2.646 -0.993,1.303 -1.463,3.319 -1.463,6.077 l 0,9.034 c 0,2.742 0.47,4.776 1.463,6.067 1.293,1.76 3.113,2.641 5.443,2.641 z M 44.649,20.956 c 0,-2.387 0.724,-3.577 2.231,-3.577 1.507,0 2.229,1.189 2.229,3.577 l 0,10.852 c 0,2.387 -0.722,3.581 -2.229,3.581 -1.507,0 -2.231,-1.194 -2.231,-3.581 l 0,-10.852 z" id="path9228" style="fill:#bb0000;fill-opacity:1"/></g><circle cx="30" cy="1022.3622" id="path9266" r="30" style="opacity:0.19100001;fill:#cccccc;fill-opacity:1;stroke:none;stroke-width:4.51399994;stroke-miterlimit:4;stroke-dasharray:none;stroke-opacity:1"/></g></svg>